<svg width="26" height="26" viewBox="0 0 26 26" fill="none" xmlns="http://www.w3.org/2000/svg">
<path d="M4.16124 4.16144L4.16141 4.16127C6.50533 1.81641 9.68485 0.5 13 0.5C16.3154 0.5 19.4949 1.81629 21.8386 4.16124L21.8387 4.16141C24.1836 6.50534 25.5 9.68461 25.5 13C25.5 16.3154 24.1837 19.4949 21.8388 21.8386L21.8386 21.8387C19.4947 24.1836 16.3154 25.5 13 25.5C9.68458 25.5 6.50505 24.1837 4.16144 21.8388L4.16127 21.8386C1.81641 19.4947 0.5 16.3154 0.5 13C0.5 9.68458 1.81629 6.50505 4.16124 4.16144ZM9.72428 19.7218H9.03229L9.24956 20.3787C9.71596 21.7891 10.2966 22.928 10.916 23.7255C11.5148 24.4964 12.236 25.0551 13 25.0551H13.0002C13.7642 25.0551 14.4854 24.4964 15.0841 23.7254C15.7033 22.9279 16.2836 21.7889 16.7493 20.3785L16.9662 19.7218H16.2745H9.72428ZM8.82289 18.8922L8.91325 19.2782H9.30973H16.6898H17.0863L17.1766 18.8922C17.5167 17.4392 17.7227 15.9586 17.7932 14.4685L17.818 13.9449H17.2937H8.70577H8.18156L8.20633 14.4685C8.27682 15.9586 8.4828 17.4392 8.82289 18.8922ZM7.75899 14.4212L7.73641 13.9449H7.25955H1.54509H1.54499H0.978595L1.04885 14.5069C1.24817 16.1014 1.76831 17.639 2.57504 19.0292L2.71956 19.2782H3.00751H7.82964H8.45063L8.31812 18.6715C8.01273 17.2733 7.82675 15.8508 7.75899 14.4212ZM17.4715 8.58409L17.4016 8.16667H16.9783H9.02131H9.02124H8.598L8.5281 8.58409C8.28375 10.0434 8.1637 11.5216 8.16646 13.0009L8.16739 13.5H8.66646H17.3331H17.8322L17.8331 13.0009C17.8359 11.5216 17.7158 10.0434 17.4715 8.58409ZM13 0.944906V0.944939C12.5487 0.945039 12.1158 1.14161 11.7283 1.4395C11.3381 1.7395 10.9617 2.16611 10.6109 2.69112C9.90885 3.74194 9.27114 5.24476 8.82393 7.10491L8.67565 7.72168L9.30999 7.72179L16.6902 7.72315L17.3248 7.72326L17.1764 7.10625C16.7291 5.24609 16.0914 3.74296 15.3893 2.69183C15.0386 2.16667 14.6622 1.73989 14.272 1.43976C13.8845 1.14167 13.4515 0.944906 13 0.944906ZM24.951 14.5069L25.0213 13.9449H24.4549H18.7405H18.7403H18.2635L18.2409 14.4212C18.1732 15.8508 17.9872 17.2733 17.6818 18.6715L17.5493 19.2782H18.1703H22.9924H23.2803L23.4249 19.0292C24.2316 17.639 24.7517 16.1014 24.951 14.5069ZM18.2784 13V13.5H18.7784H24.5553H25.0553V13C25.0553 11.4498 24.7544 9.91358 24.1678 8.4776L24.0408 8.16667H23.7049H18.4425H17.8586L17.9485 8.74364C18.168 10.1523 18.2784 11.5755 18.2784 13ZM17.679 7.3147L17.756 7.72176H18.1703H22.9925H22.9926H23.8609L23.4251 6.97078C21.8173 4.2006 19.1773 2.18188 16.0821 1.35831L14.7908 1.01469L15.5394 2.12161C16.5994 3.68891 17.3274 5.45607 17.679 7.3147ZM10.0465 1.34149H9.78109L9.73588 1.40834C6.71933 2.26187 4.15105 4.25524 2.57518 6.9708L2.13939 7.72176H3.00764H7.82977H8.24407L8.32106 7.31468C8.67263 5.45589 9.40066 3.68878 10.4607 2.12163L10.1185 1.89015L10.0467 1.34149H10.0465ZM8.05185 8.74364L8.14175 8.16667H7.55781H3.03986H2.29553H2.29541V8.66662L1.83266 8.4776C1.24613 9.91358 0.945125 11.4497 0.945125 13V13.5H1.44513H7.22198H7.72198V13C7.72198 11.5755 7.83237 10.1523 8.05185 8.74364ZM8.67911 20.0897L8.57837 19.7218H8.19686H3.99352H3.99349H2.95014L3.60377 20.535C5.21698 22.5421 7.42922 23.9817 9.91854 24.6415L11.242 24.9923L10.456 23.8711C9.65086 22.7227 9.04987 21.444 8.67911 20.0897ZM15.9535 24.6582H16.2136L16.2594 24.5929C18.6763 23.9128 20.8217 22.4944 22.3964 20.535L23.0499 19.7218H22.0066H17.8033H17.4218L17.321 20.0897C16.9503 21.4438 16.3493 22.7225 15.5441 23.8711L15.8818 24.1079L15.9535 24.6582H15.9535Z" fill="#828282" stroke="#828282"/>
</svg>
