<svg width="28" height="28" viewBox="0 0 28 28" fill="none" xmlns="http://www.w3.org/2000/svg">
<path d="M14 1C10.5523 1 7.24555 2.36906 4.80779 4.80779C2.36892 7.24527 1 10.5521 1 14C1 17.4479 2.36906 20.7545 4.80779 23.1922C7.24527 25.6311 10.5521 27 14 27C17.4479 27 20.7545 25.6309 23.1922 23.1922C25.6311 20.7547 27 17.4479 27 14C27 10.5521 25.6309 7.24555 23.1922 4.80779C20.7547 2.36892 17.4479 1 14 1ZM14 25.5551C12.9546 25.5551 11.6329 23.9694 10.7243 21.2218H17.2745C16.3672 23.9694 15.0456 25.5551 14.0002 25.5551H14ZM10.3097 19.7782C9.97661 18.355 9.77483 16.9047 9.70577 15.4449H18.2937C18.2247 16.9047 18.0229 18.355 17.6898 19.7782H10.3097ZM2.54509 15.4449H8.25955C8.32861 16.902 8.51819 18.3523 8.82964 19.7782H4.00751C3.23427 18.4457 2.73593 16.9724 2.54499 15.4449H2.54509ZM10.0213 9.66667H17.9783C18.218 11.098 18.3358 12.5483 18.3331 14H9.66646C9.66375 12.5483 9.78156 11.098 10.0212 9.66667H10.0213ZM14 2.44491C15.2174 2.44491 16.8153 4.5845 17.6903 8.22315L10.3101 8.22179C11.1849 4.58318 12.7828 2.44494 14.0003 2.44494L14 2.44491ZM19.7405 15.4449H25.4549C25.264 16.9724 24.7656 18.4457 23.9924 19.7782H19.1703C19.4817 18.3523 19.6713 16.902 19.7403 15.4449H19.7405ZM19.7784 14C19.7784 12.5497 19.666 11.1007 19.4425 9.66667H24.7049C25.2669 11.0425 25.5553 12.5145 25.5553 14H19.7784ZM23.9925 8.22176H19.1703C18.806 6.29613 18.0518 4.46528 16.9536 2.84149C19.9205 3.63096 22.4513 5.56609 23.9926 8.22176H23.9925ZM11.0465 2.84149C9.94829 4.46514 9.19401 6.29596 8.82977 8.22176H4.00764C5.54868 5.56622 8.07959 3.6312 11.0467 2.84149H11.0465ZM3.29541 9.66667H8.55781C8.33437 11.1007 8.22198 12.5497 8.22198 14H2.44513C2.44513 12.5145 2.73356 11.0425 3.29553 9.66667H3.29541ZM4.99352 21.2218H9.19686C9.5828 22.6314 10.2084 23.9626 11.0466 25.1582C8.6606 24.5258 6.53997 23.1459 4.99349 21.2218H4.99352ZM16.9535 25.1582C17.7918 23.9624 18.4174 22.6313 18.8033 21.2218H23.0066C21.4602 23.146 19.3396 24.5259 16.9535 25.1582H16.9535Z" fill="#701E7D" stroke="#701E7D"/>
</svg>
