<svg width="24" height="29" viewBox="0 0 24 29" fill="none" xmlns="http://www.w3.org/2000/svg">
<path d="M8.42631 13.9807L9.89008 13.5045L8.61296 12.6452C8.28113 12.422 7.98071 12.1677 7.7106 11.8821C5.30542 9.33917 5.27987 5.18786 7.67632 2.65411C8.84381 1.41973 10.3637 0.75 12 0.75C13.5997 0.75 15.1222 1.41817 16.2928 2.62148C18.6946 5.16477 18.719 9.31334 16.3237 11.8459L16.3102 11.8602L16.2975 11.8751C16.0487 12.1673 15.7364 12.4109 15.3485 12.7092L14.2102 13.5845L15.579 14.0187C17.185 14.5281 18.6938 15.4109 19.9447 16.6317L19.947 16.634C21.8343 18.4603 22.9214 20.7872 23.1827 23.2153C23.1861 23.3196 23.1958 23.5513 23.2063 23.802C23.2096 23.8813 23.213 23.9625 23.2164 24.0422C23.2244 24.2352 23.2324 24.4302 23.2386 24.5921C21.2137 26.1765 17.0758 28.25 12 28.25C6.91995 28.25 2.89831 26.2055 0.761005 24.5514C0.774081 24.1419 0.786572 23.8235 0.796471 23.5897C0.800526 23.494 0.804419 23.4073 0.807777 23.3326C0.812162 23.2351 0.815635 23.1578 0.817367 23.1069C1.07887 20.7477 2.13365 18.4583 3.98399 16.6706L3.9867 16.668C5.24199 15.4429 6.75376 14.5248 8.42631 13.9807Z" stroke="#828282" stroke-width="1.5"/>
</svg>
