<svg width="24" height="29" viewBox="0 0 24 29" fill="none" xmlns="http://www.w3.org/2000/svg">
<path d="M16.8343 2.1025C15.5314 0.76125 13.8171 0 12 0C10.1486 0 8.43429 0.76125 7.13143 2.13875C4.45714 4.96625 4.49143 9.57 7.16571 12.3975C7.47429 12.7238 7.81714 13.0138 8.19429 13.2675C6.41143 13.8475 4.8 14.8263 3.46286 16.1313C1.47429 18.0525 0.342857 20.5175 0.0685714 23.055C0.0685714 23.1275 0.0342857 23.7075 0 24.9037C2.16 26.68 6.48 29 12 29C17.52 29 21.9771 26.6438 24 24.94C24 24.7588 23.9314 23.2363 23.9314 23.1638C23.6571 20.5538 22.4914 18.0525 20.4686 16.095C19.1314 14.79 17.52 13.8475 15.8057 13.3038C16.1829 13.0138 16.56 12.7238 16.8686 12.3612C19.5429 9.53375 19.5086 4.93 16.8343 2.1025Z" fill="#701E7D"/>
</svg>
