<svg width="149" height="44" viewBox="0 0 149 44" fill="none" xmlns="http://www.w3.org/2000/svg">
<path fill-rule="evenodd" clip-rule="evenodd" d="M22.0809 1.00021C33.668 1.05095 43.0239 10.4933 42.9695 22.096C42.9188 33.6951 33.4796 43.0541 21.8925 42.9998C10.3018 42.949 0.949496 33.5066 1.00021 21.9076C1.05454 10.3085 10.4901 0.949459 22.0809 1.00021Z" fill="white"/>
<path fill-rule="evenodd" clip-rule="evenodd" d="M1.24437 21.9113C1.29351 10.4407 10.6237 1.18701 22.0823 1.23997C33.5409 1.28915 42.7879 10.6261 42.735 22.0967C42.6859 33.5636 33.3557 42.8173 21.8971 42.7643C10.4385 42.7113 1.19144 33.3782 1.24437 21.9113Z" stroke="#00904C" stroke-width="0.8" stroke-miterlimit="3.8637"/>
<path fill-rule="evenodd" clip-rule="evenodd" d="M2.33611 21.9151C2.38526 11.0498 11.2202 2.28794 22.0739 2.33712C32.9277 2.3863 41.6832 11.2276 41.6379 22.0892C41.5887 32.9507 32.7538 41.7164 21.9 41.6672C11.0463 41.618 2.29075 32.7767 2.33611 21.9151ZM32.2207 9.82405L34.0542 9.01067L33.4153 10.9136L32.2207 9.82405ZM30.9543 11.3033L31.3361 10.8796L30.8106 10.4029L31.6347 10.0586L33.249 11.5227L32.9768 12.3739L32.4551 11.901L32.0733 12.3172L33.8312 13.9175L34.213 13.4975L33.869 13.1835L35.109 8.97662L34.111 8.06865L30.0318 9.69543L29.684 9.38142L29.306 9.80136L30.9543 11.3033ZM35.0334 16.8721L35.5664 16.683L35.3472 16.0739L38.2468 15.0411L35.5702 18.3703L36.0579 19.736L39.7741 18.4005L39.9896 19.0021L40.5226 18.8091L39.7439 16.6338L39.2108 16.8267L39.4414 17.4737L36.6325 18.4762L39.2373 15.2189L38.5001 13.1646L37.967 13.3576L38.1976 14.0007L35.0183 15.1432L34.7877 14.5001L34.2546 14.693L35.0334 16.8721ZM28.0357 9.25279L28.4024 7.8114L27.5065 7.58441L27.2759 8.49237L24.8942 7.88706L28.8977 5.52635L29.0678 4.85294L24.7316 3.75203L24.3725 5.15938L25.2722 5.38637L25.4915 4.51245L27.6653 5.0648L23.7071 7.43686L23.537 8.11027L28.0357 9.25279ZM22.0399 8.03461L21.798 6.61969L20.9096 6.77102L21.057 7.6298L18.9399 7.99299L18.6942 6.57429L19.541 6.43053L19.6355 6.99044L20.403 6.85803L20.1119 5.16316L19.3444 5.29179L19.4427 5.87062L18.5959 6.01438L18.3653 4.65622L20.4824 4.29303L20.6185 5.09507L21.5031 4.94374L21.2687 3.57801L16.4864 4.40274L16.5847 4.96265L17.2576 4.84538L17.8285 8.17837L17.1556 8.29565L17.2501 8.85177L22.0399 8.03461ZM15.8967 9.46843L15.0574 8.30321L14.324 8.82908L14.8306 9.53653L13.0915 10.7888L12.2523 9.62355L12.9517 9.1166L13.2806 9.57815L13.9157 9.12416L12.9101 7.72817L12.2787 8.18215L12.6228 8.65883L11.9196 9.162L11.1181 8.04595L12.8572 6.78994L13.3335 7.45199L14.0631 6.92235L13.2541 5.80252L9.31864 8.63613L9.64754 9.09768L10.1995 8.70045L12.1691 11.447L11.6209 11.8481L11.9536 12.3058L15.8967 9.46843ZM10.5359 12.8279L10.2524 13.4294L7.1978 11.9843L7.48133 11.3865L6.96719 11.1406L5.91622 13.3727L8.5512 15.9869L4.86525 15.5972L3.83318 17.7839L4.34732 18.026L4.63086 17.4245L7.68548 18.8659L7.40194 19.4674L7.9123 19.7133L8.84986 17.7234L8.34328 17.485L8.09377 18.0109L5.04671 16.5657L9.22791 16.9327L9.67022 15.9944L6.74792 12.949L9.79876 14.3866L9.53413 14.9503L10.0483 15.1924L11.0501 13.07L10.5359 12.8279ZM11.4924 31.4261L11.1408 31.8725L11.6701 32.2886L9.58327 34.9369L9.05401 34.5207L8.69864 34.9709L10.7401 36.5826C10.9972 36.7831 11.224 36.9533 11.4206 37.0857C11.6172 37.2219 11.8289 37.3203 12.0519 37.3846C12.275 37.4527 12.498 37.4527 12.7173 37.3959C12.9441 37.3392 13.1256 37.2257 13.2617 37.0479C13.4545 36.8096 13.5225 36.5258 13.4772 36.2042C13.4393 35.8865 13.2692 35.6065 12.9668 35.3682C13.6246 35.7692 14.135 35.7351 14.5054 35.266C14.6113 35.1374 14.6793 34.9785 14.7096 34.7969C14.7474 34.6191 14.7323 34.4413 14.6718 34.2748C14.6113 34.1046 14.5168 33.9495 14.4034 33.8057C14.2937 33.6657 14.0934 33.4841 13.8061 33.2571L11.4924 31.4261ZM12.9176 33.2761L13.1369 33.4501C13.2314 33.522 13.3259 33.6014 13.4204 33.6846C13.515 33.7679 13.5906 33.8587 13.6548 33.9608C13.7191 34.0592 13.7456 34.1689 13.7267 34.2899C13.7153 34.4148 13.6624 34.5283 13.5792 34.638C13.515 34.7174 13.428 34.7818 13.3146 34.8234C13.205 34.8726 13.0953 34.8953 12.9857 34.8877C12.8798 34.8726 12.7664 34.8347 12.653 34.7666C12.5472 34.7023 12.4073 34.5926 12.2296 34.4564L11.7155 34.0478L12.5547 32.9847L12.9176 33.2761ZM10.4603 35.6405L11.3601 34.498L11.9461 34.9596L12.0217 35.0201C12.1691 35.1374 12.275 35.2282 12.3468 35.3001C12.4186 35.3757 12.498 35.4968 12.5812 35.6784C12.6644 35.8562 12.6228 36.0491 12.4526 36.2648C12.3808 36.3594 12.2901 36.4275 12.188 36.4691C12.0897 36.5145 11.9763 36.5296 11.8553 36.5182C11.7344 36.5069 11.6209 36.4766 11.5113 36.4237C11.4055 36.3745 11.2542 36.2686 11.0501 36.1097L10.4603 35.6405ZM16.3503 37.3089L17.6659 35.7919L17.889 37.7856L16.3503 37.3089ZM15.8248 39.1854L15.9949 38.6406L15.3145 38.4288L15.9156 37.7629L17.9986 38.4098L18.1082 39.2989L17.4353 39.087L17.269 39.6318L19.5372 40.3393L19.7074 39.7945L19.2613 39.6583L18.6073 35.3228L17.3257 34.9217L14.3164 38.1223L13.8703 37.9861L13.704 38.5309L15.8248 39.1854ZM23.6995 40.1577L23.6315 39.594L22.9926 39.6659L22.6372 36.609L25.276 39.9685L26.7164 39.7983L26.2551 35.8789L26.8903 35.8032L26.8222 35.2395L24.5237 35.5119L24.5917 36.0756L25.2798 35.9962L25.6162 38.9622L23.038 35.6935L20.8718 35.9508L20.9398 36.5107L21.6165 36.4312L22.0135 39.7869L21.3405 39.8664L21.4048 40.4301L23.6995 40.1577ZM32.6517 36.8663L32.3152 36.4123L31.7822 36.8133L30.7199 35.3909L33.2225 35.7427L32.7538 36.087L33.094 36.5409L34.9805 35.1336L34.6402 34.6796L34.2735 34.952L31.6385 34.585L32.1602 32.3151L32.5156 32.0503L32.1754 31.5963L30.3607 32.9469L30.701 33.4009L31.1395 33.0718L30.6632 35.3114L29.7596 34.1046L30.2927 33.7073L29.9524 33.2534L27.9828 34.725L28.3231 35.179L28.8637 34.778L30.8824 37.4867L30.3456 37.8878L30.6858 38.3417L32.6517 36.8663Z" fill="#762283" stroke="white" stroke-width="0.023509" stroke-miterlimit="3.8637"/>
<path fill-rule="evenodd" clip-rule="evenodd" d="M72.8555 39.3438C72.8555 39.3779 72.8972 39.4007 72.9465 39.4083L72.9995 39.4045L73.0071 39.3742C73.0033 39.3438 72.8555 39.3097 72.8555 39.3438Z" fill="#FFCD4F"/>
<path fill-rule="evenodd" clip-rule="evenodd" d="M82.1914 38.4404C82.1914 38.4404 82.222 38.4595 82.2411 38.4595C82.2602 38.4595 82.2794 38.4519 82.2794 38.4519C82.2794 38.4289 82.287 38.4175 82.2679 38.4136C82.2411 38.406 82.1914 38.4213 82.1914 38.4404Z" fill="#FFCD4F"/>
<path fill-rule="evenodd" clip-rule="evenodd" d="M80.6049 38.4893C80.6049 38.4893 80.5747 38.459 80.5482 38.459C80.5029 38.459 80.5029 38.4931 80.5029 38.5159C80.5029 38.531 80.5256 38.5348 80.5256 38.55C80.5256 38.5651 80.4953 38.5651 80.4727 38.5803L80.5104 38.5614C80.5331 38.5727 80.5596 38.5765 80.5898 38.5765C80.6238 38.5765 80.6578 38.5689 80.6578 38.5462C80.6578 38.531 80.6351 38.5083 80.6049 38.4893Z" fill="#FFCD4F"/>
<path fill-rule="evenodd" clip-rule="evenodd" d="M72.5976 39.3587C72.5787 39.3398 72.5598 39.3208 72.5182 39.3208C72.4955 39.3208 72.4842 39.3322 72.4615 39.336C72.42 39.3473 72.3633 39.3473 72.3633 39.3739C72.3633 39.4118 72.4237 39.4383 72.4918 39.4383C72.5522 39.4383 72.624 39.4308 72.624 39.3966C72.624 39.3815 72.6089 39.3701 72.5976 39.3587Z" fill="#FFCD4F"/>
<path fill-rule="evenodd" clip-rule="evenodd" d="M87.9801 36.1016C88.086 36.1621 88.0784 36.1394 88.241 36.1167C88.3922 36.0902 88.2712 36.1961 88.6455 36.1167C88.7929 36.0864 90.0291 36.128 90.1879 36.128C90.2408 36.128 90.5622 36.1318 90.6 36.2453L90.7701 36.1507C90.8495 36.1507 90.8608 36.1583 90.9591 36.1659C91.0083 36.2188 91.1179 36.1659 91.1519 36.1659C91.2011 36.2188 91.3107 36.2037 91.3561 36.181C91.7228 36.2075 92.0328 36.2113 92.1311 36.2113C92.2861 36.2113 92.097 36.2945 92.2558 36.2945C92.4108 36.2945 92.3806 36.2226 92.5356 36.2226C92.7095 36.2226 93.1253 36.2415 93.2728 36.3021C93.2728 36.3021 93.4656 36.408 93.458 36.3059L93.7075 36.2567L93.8323 36.3172C93.7793 36.408 93.6962 36.4572 93.8512 36.5328C93.836 36.5177 93.8965 36.4383 93.9079 36.355L94.4447 36.3588L94.5581 36.4231C94.5997 36.3929 94.5884 36.3513 94.7434 36.3513C94.8984 36.3513 95.1327 36.5366 95.3634 36.6085C95.4087 36.5782 95.5335 36.5442 95.6923 36.4685C95.7112 36.5215 95.6998 36.582 95.7565 36.6123H96.1724C96.2215 36.582 96.2215 36.5101 96.316 36.4685C96.4937 36.8015 97.2007 36.5782 97.643 36.862C97.677 36.9263 97.3746 36.7863 97.2914 36.8771C97.2422 36.9301 97.144 36.809 96.989 36.809C96.8302 36.809 96.6412 36.8317 96.4143 36.8242C96.3727 36.8242 96.4635 37.002 96.2669 36.9641C96.1799 36.8847 96.3841 36.862 96.3047 36.7825C96.248 36.7523 96.0741 36.8015 96.0363 36.7712C95.9834 36.7712 96.059 36.9679 96.0023 36.9603C95.817 36.9641 95.9229 36.8166 95.8624 36.8317C95.7981 36.8279 95.8473 36.9112 95.7981 36.9452C95.6393 36.983 95.8095 36.7863 95.5675 36.7939C95.5221 36.7901 95.473 36.896 95.5562 36.9339C95.749 36.8998 95.6885 37.1079 95.594 37.1041C95.3634 37.0663 95.4692 37.2706 95.386 37.263C95.2688 37.2441 95.3634 37.1457 95.2613 37.0738C95.2499 37.0057 95.3671 37.0701 95.4238 37.0436L95.4125 36.949C95.3785 36.9566 95.2008 36.8809 95.0949 36.8771C95.042 36.9755 95.1441 37.1609 95.1176 37.2819C94.9967 37.1911 94.8454 37.0549 94.8719 36.9149C94.7509 36.9339 94.8341 37.0852 94.6451 37.0587C94.5165 37.0209 94.8227 36.896 94.6451 36.7561C94.5014 36.7447 94.6337 36.8128 94.6262 36.862C94.5392 36.8658 94.422 36.8506 94.3729 36.8469C94.3729 36.8469 94.3124 36.809 94.3124 36.896C94.3124 36.9868 94.4145 36.9225 94.4145 37.0133C94.4145 37.0511 94.3275 37.0436 94.3124 37.0776C94.2935 37.1268 94.3767 37.2554 94.2595 37.2214C94.165 37.1798 94.1498 37.0965 94.112 37.0663C94.0024 37.0663 94.165 37.2403 93.9306 37.2176C93.8587 37.2176 93.8474 37.1836 93.7756 37.1344C93.7604 37.1117 93.7869 37.0928 93.9457 37.1382C94.0364 37.1495 93.9381 37.0549 93.9835 37.0095C94.0629 36.9868 94.1271 36.9566 94.1876 36.9149C94.1309 36.8885 94.267 36.8317 94.1082 36.8279C93.8436 36.8242 93.7453 37.1987 93.5298 37.21C93.3824 37.1722 93.4996 36.9263 93.458 36.8279C93.2954 36.8128 93.3673 37.0625 93.3522 37.1987C93.2274 37.2327 93.1404 37.2365 93.0913 37.2025C93.0195 37.1684 92.9023 37.0474 92.8645 36.9793C92.8304 37.0133 92.8796 37.1646 92.8796 37.1646C92.7435 37.2063 92.407 37.1836 91.7795 37.1419C91.4014 37.1192 91.6169 37.0284 91.4506 36.9566C91.4166 36.9982 91.099 37.1382 90.9516 37.1382C90.8003 37.1382 90.6378 37.1003 87.6588 37.1079C87.5113 37.1079 87.379 37.0738 87.2164 37.0776C86.1126 37.0814 85.9538 37.1041 85.6967 37.1306C85.6022 37.1382 85.4623 37.2025 85.296 37.21C85.2279 37.2138 85.1977 37.1495 85.0994 37.1533C85.0691 37.1533 85.0087 37.1911 84.9784 37.1911C84.9406 37.1949 84.8952 37.1533 84.8537 37.1533C84.8083 37.1533 84.7856 37.1836 84.7327 37.1836C84.6533 37.1873 84.5512 37.1382 84.4605 37.1382C84.3962 37.1382 84.3357 37.229 84.1807 37.229C84.0257 37.229 84.1467 37.1722 83.9917 37.1722C83.8707 37.1722 83.7762 37.1646 83.6893 37.1646C83.6288 37.1646 83.5607 37.2554 83.4965 37.2706C83.4587 37.2781 83.2961 37.2025 83.2507 37.2138C83.1827 37.2365 83.2394 37.2706 83.1449 37.3122L83.0012 37.229C82.9634 37.2592 82.9483 37.2895 82.7933 37.2895C82.6383 37.2895 82.7404 37.2365 82.5816 37.2365C82.4266 37.2365 82.4455 37.3273 82.2905 37.3273C82.1317 37.3273 82.2867 37.2706 82.1317 37.2668C82.0221 37.2668 81.9881 37.3387 81.9276 37.3387C81.8331 37.3462 81.7272 37.2706 81.6818 37.2781C81.6251 37.2895 81.5722 37.3576 81.4361 37.3689C81.3567 37.3765 81.0883 37.3046 80.9333 37.3046C80.8539 37.3046 80.7556 37.4446 80.7329 37.4446C80.5742 37.4446 80.6762 37.35 80.5212 37.35C80.3625 37.35 80.3965 37.4711 80.2377 37.4711C80.0789 37.4711 80.1394 37.3841 79.9806 37.3841C79.9164 37.3841 79.9428 37.4484 79.8786 37.4749C79.8256 37.4976 79.5686 37.4635 79.5194 37.4938C79.4854 37.5127 79.5686 37.5543 79.5383 37.5694C79.5383 37.5694 79.7387 37.577 79.9088 37.5657C79.9353 37.5619 79.9315 37.577 79.958 37.577C79.9806 37.577 80.0336 37.5581 80.0525 37.5581C80.1243 37.5505 80.1923 37.5505 80.2339 37.5505L80.7821 37.5316L80.9031 37.543L80.9447 37.524L81.2017 37.5127C81.2017 37.5127 81.4512 37.4635 81.4739 37.4673C81.4815 37.4673 81.5533 37.5013 81.6932 37.49C81.7801 37.4862 81.8784 37.4862 81.9881 37.4824C81.9994 37.4824 82.0372 37.5165 82.0486 37.5127C82.0675 37.5127 82.0637 37.4786 82.0788 37.4786C82.2073 37.4711 82.3396 37.4673 82.4493 37.4635C82.6496 37.4143 82.7442 37.4105 82.7442 37.4484C82.6723 37.543 82.6761 37.6073 82.7555 37.6413C82.7555 37.6413 82.7404 37.6754 82.8992 37.6754C83.0542 37.6754 83.0655 37.6451 83.1184 37.6262C83.0655 37.5997 83.0012 37.5278 82.9332 37.4749C83.0768 37.4295 83.3074 37.3916 83.4624 37.3916C83.6212 37.3916 83.7762 37.4295 83.9274 37.437C83.8367 37.6451 84.0409 37.6451 84.1845 37.6451C84.3433 37.6451 84.4718 37.5732 84.71 37.6111C84.7591 37.5808 84.8121 37.5581 84.8159 37.5316C84.7062 37.5013 84.5966 37.5051 84.1959 37.5354C84.1883 37.4824 84.1316 37.4976 84.0635 37.4446C84.2677 37.3954 84.5248 37.3992 84.778 37.3652L85.9386 37.35C86.2297 37.3198 86.294 37.3424 86.1277 37.4219C85.9878 37.4749 85.795 37.5089 85.6249 37.5316C85.4207 37.5884 85.4812 37.6186 85.7988 37.6186C86.3091 37.6678 86.6985 37.6678 86.9669 37.6224C87.1257 37.6224 87.4471 37.5543 87.6021 37.5543C87.7571 37.5543 87.723 37.5921 87.81 37.5959C87.5945 37.6527 87.7041 37.857 87.6058 37.8418C87.5151 37.8002 87.3866 37.7624 87.3488 37.7321C87.3072 37.7624 87.224 37.7624 87.1219 37.7586C87.1333 37.7813 87.1938 37.8532 87.1862 37.9024C87.0993 37.9099 87.0615 37.9024 86.9745 37.944C86.8913 37.9024 86.9745 37.7321 86.8195 37.7283C86.3167 37.7246 86.0369 37.8116 85.7345 38.0423C85.6551 38.0423 85.6362 38.0007 85.5946 37.9705L85.4661 38.0423C85.3224 37.9667 85.1448 37.9326 84.9746 37.8986C84.9217 37.9326 84.6835 38.1142 84.4038 38.1142C84.245 38.1142 84.1959 38.0348 84.1543 38.0045C84.0371 37.9969 84.211 38.1029 84.1127 38.1067C83.8594 38.1558 83.9161 37.9667 83.8518 38.0386C83.8065 38.1369 83.8707 38.2769 83.7724 38.432C83.746 38.3753 83.7573 38.3526 83.7157 38.3261C83.6742 38.3563 83.6855 38.4131 83.6742 38.4661C83.4776 38.5001 83.3793 38.485 83.3755 38.4169C83.5834 38.3185 83.5985 38.1558 83.6893 38.0953L83.5834 38.0386C83.126 38.1104 83.402 38.292 83.2281 38.4661C83.0806 38.4282 83.0731 38.3526 82.9407 38.2731C82.9407 38.2315 83.0693 38.2239 83.0806 38.1634V38.1067C83.0806 38.1067 83.0012 38.1218 82.9785 38.1748C82.884 38.1369 82.5967 37.9137 82.5362 37.9932C82.4909 38.0234 82.4342 38.084 82.4266 38.1331C82.3434 38.1369 82.2829 38.1029 81.9276 38.0953C81.8368 38.0915 82.0107 38.5077 81.9276 38.4888C81.5268 38.4774 81.7461 38.2466 81.4588 38.1294C81.4021 38.1294 81.3681 38.1937 81.2962 38.2693C81.2168 38.2731 81.1526 38.1975 80.9976 38.1975C80.8388 38.1975 80.5364 38.2693 80.2982 38.2958C80.0827 38.2882 80.3284 38.6401 80.2869 38.6287C80.1886 38.5871 80.1999 38.519 80.0903 38.4812C80.0449 38.5152 80.1167 38.572 80.1092 38.6212C80.026 38.6287 79.9428 38.5833 79.9012 38.5531C79.8597 38.5833 79.8672 38.6968 79.7122 38.6968C79.5534 38.6968 79.372 38.6476 79.3342 38.5833C79.2964 38.6174 79.3077 38.6401 79.2964 38.6855C79.028 38.6893 78.7028 38.7233 78.4684 38.6893L78.321 38.7574C78.3059 38.7044 78.2605 38.6514 78.1547 38.6174C78.1093 38.6477 78.2114 38.7952 78.0526 38.7952C77.8976 38.7952 78.0223 38.7233 77.8636 38.7233C77.3494 38.7195 72.7297 39.2416 71.9623 39.3021C71.966 39.3097 72.0568 39.3665 71.8942 39.4686C71.8262 39.5367 71.6674 39.4837 71.7354 39.4119C71.8602 39.3438 71.777 39.2946 71.6674 39.3248C71.2591 39.374 71.5502 39.4989 71.4481 39.5254C71.2213 39.5367 71.2062 39.3929 71.1495 39.4081C71.0852 39.4875 71.2704 39.5708 70.9189 39.6048C70.8432 39.5632 70.8621 39.4346 70.8206 39.4081C70.6429 39.4005 70.571 39.461 70.5673 39.5972C70.4992 39.6351 70.4954 39.688 70.3367 39.688C70.1779 39.688 70.1968 39.6161 70.0418 39.6161C70.0304 39.6161 69.9548 39.7183 69.607 39.7675C69.2063 39.8242 68.5183 39.8242 68.3784 39.8242C67.5013 39.8204 67.5353 39.1886 67.5353 38.9541C67.5391 38.3299 67.8642 37.036 69.8376 37.0436L70.6504 37.0133L81.6629 36.2378L86.0407 36.128L86.1844 36.1621L86.3507 36.1129L87.9801 36.1016Z" fill="#FFCD4F"/>
<path fill-rule="evenodd" clip-rule="evenodd" d="M75.7179 39.0527C75.6877 39.0527 75.6726 39.0527 75.6424 39.0527C75.6235 39.0641 75.6121 39.0679 75.5932 39.0755L75.6084 39.0717C75.597 39.0831 75.5781 39.0906 75.5781 39.0906C75.5781 39.1475 75.6537 39.1779 75.7293 39.1779C75.7746 39.1779 75.82 39.1589 75.82 39.1286C75.8124 39.0982 75.7784 39.0527 75.7179 39.0527Z" fill="#FFCD4F"/>
<path fill-rule="evenodd" clip-rule="evenodd" d="M82.4205 38.2314C82.3899 38.2314 82.3555 38.2429 82.3555 38.262C82.3555 38.2812 82.3899 38.3003 82.4281 38.3003C82.4587 38.3003 82.4778 38.2888 82.4778 38.2735C82.4817 38.2544 82.4549 38.2314 82.4205 38.2314Z" fill="#FFCD4F"/>
<path fill-rule="evenodd" clip-rule="evenodd" d="M82.857 38.4366C82.9023 38.4366 82.9061 38.4025 82.9061 38.3759C82.9061 38.3418 82.9439 38.3228 82.9439 38.2887C82.9439 38.2887 82.9439 38.2773 82.9439 38.2736L82.8759 38.3266C82.9061 38.3039 82.9212 38.2849 82.9212 38.2508C82.9212 38.2318 82.8834 38.2167 82.8419 38.2129C82.7776 38.2129 82.7285 38.247 82.7285 38.2887C82.7285 38.3266 82.7474 38.3532 82.7814 38.3911C82.8041 38.4063 82.8154 38.4366 82.857 38.4366Z" fill="#FFCD4F"/>
<path fill-rule="evenodd" clip-rule="evenodd" d="M84.4436 38.1641C84.5763 38.2209 84.5763 38.293 84.4436 38.3764C84.345 38.293 84.3488 38.202 84.4436 38.1641Z" fill="#FFCD4F"/>
<path fill-rule="evenodd" clip-rule="evenodd" d="M86.314 38.258C86.28 38.2353 86.2535 38.2163 86.1968 38.2163C86.1402 38.2163 86.0684 38.2201 86.0684 38.2542C86.0684 38.2959 86.1288 38.3376 86.2044 38.3376C86.2762 38.3414 86.314 38.2997 86.314 38.258Z" fill="#FFCD4F"/>
<path fill-rule="evenodd" clip-rule="evenodd" d="M88.3079 38.1934C88.2852 38.1896 88.2777 38.1782 88.255 38.1782C88.1945 38.1782 88.1719 38.2237 88.1719 38.2578C88.1719 38.2958 88.2248 38.3299 88.2928 38.3299C88.3381 38.3299 88.3721 38.3109 88.3721 38.2882C88.3721 38.2503 88.3495 38.2199 88.3079 38.1934Z" fill="#FFCD4F"/>
<path fill-rule="evenodd" clip-rule="evenodd" d="M91.0102 37.8871L91.0177 37.8795C91.0177 37.8454 90.9686 37.8226 90.9157 37.8188C90.859 37.8188 90.791 37.8264 90.791 37.8606C90.791 37.8947 90.8628 37.9174 90.9233 37.9174C90.9611 37.9212 90.9875 37.9061 91.0102 37.8871Z" fill="#FFCD4F"/>
<path fill-rule="evenodd" clip-rule="evenodd" d="M92.6332 37.6648C92.603 37.6307 92.5614 37.6079 92.4934 37.6079C92.4518 37.6079 92.4141 37.6269 92.4141 37.6496C92.4141 37.6686 92.4443 37.6762 92.4594 37.6913C92.4821 37.7141 92.501 37.7368 92.5463 37.7368C92.603 37.7406 92.6332 37.6989 92.6332 37.6648Z" fill="#FFCD4F"/>
<path fill-rule="evenodd" clip-rule="evenodd" d="M92.3113 37.6648C92.2849 37.6344 92.2509 37.6079 92.1904 37.6079C92.1451 37.6079 92.1035 37.6269 92.1035 37.6534C92.1035 37.6799 92.1262 37.6913 92.1526 37.7141C92.1791 37.7406 92.2018 37.7672 92.2509 37.7672C92.2849 37.7672 92.3113 37.7482 92.3113 37.7292C92.3113 37.7027 92.3113 37.6875 92.3113 37.6648Z" fill="#FFCD4F"/>
<path fill-rule="evenodd" clip-rule="evenodd" d="M92.0004 37.665C91.9778 37.631 91.9363 37.6045 91.8723 37.6045C91.778 37.6045 91.6875 37.6385 91.6875 37.6915C91.6875 37.7256 91.7667 37.7369 91.8308 37.7369C91.9062 37.7369 92.0004 37.7293 92.0004 37.6839C92.0042 37.6877 91.9967 37.6726 92.0004 37.665Z" fill="#FFCD4F"/>
<path fill-rule="evenodd" clip-rule="evenodd" d="M93.0436 37.6717C93.0096 37.649 92.9756 37.6338 92.9189 37.6338C92.8774 37.6338 92.832 37.6527 92.832 37.6755C92.832 37.7096 92.8925 37.7286 92.9529 37.7286C93.0021 37.7248 93.0512 37.702 93.0436 37.6717Z" fill="#FFCD4F"/>
<path fill-rule="evenodd" clip-rule="evenodd" d="M93.6854 37.7243C93.6701 37.7243 93.6625 37.709 93.6472 37.709C93.6243 37.709 93.5898 37.7128 93.5898 37.7128C93.5898 37.7472 93.6319 37.7549 93.6663 37.7549C93.6778 37.7549 93.6893 37.7472 93.6893 37.7396C93.6931 37.7396 93.6969 37.7243 93.6854 37.7243Z" fill="#FFCD4F"/>
<path fill-rule="evenodd" clip-rule="evenodd" d="M89.9074 37.3052C89.8581 37.3052 89.8164 37.3317 89.8164 37.3583C89.8164 37.3848 89.8429 37.4151 89.8922 37.4151C89.9377 37.4151 89.9681 37.3962 89.9681 37.3696C89.9681 37.3393 89.9567 37.3052 89.9074 37.3052Z" fill="#FFCD4F"/>
<path fill-rule="evenodd" clip-rule="evenodd" d="M80.7323 38.2925C80.6567 38.3001 80.5547 38.3001 80.5547 38.3456C80.5547 38.3607 80.5585 38.3683 80.5585 38.3835C80.5774 38.3835 80.5887 38.3835 80.6114 38.3835C80.6832 38.3835 80.7512 38.3531 80.7512 38.3114L80.7323 38.2925Z" fill="#FFCD4F"/>
<path fill-rule="evenodd" clip-rule="evenodd" d="M81.3164 38.3037C81.6831 38.3037 81.5243 38.3226 81.7474 38.5496C81.7474 38.5496 81.513 38.5534 81.4412 38.4929C81.5319 38.4853 81.5622 38.4664 81.5659 38.4399L81.4601 38.3794C81.358 38.4134 81.4072 38.5572 81.2522 38.5572C81.0934 38.5572 81.1954 38.5194 81.1576 38.4853C81.1161 38.5156 81.1274 38.5421 81.1161 38.5875H80.825C80.7531 38.508 80.7493 38.4323 80.7796 38.3605C80.8136 38.3945 80.8023 38.455 80.8476 38.4853C81.1652 38.4172 81.0178 38.3037 81.3164 38.3037Z" fill="#FFCD4F"/>
<path fill-rule="evenodd" clip-rule="evenodd" d="M86.7673 37.3052C86.7214 37.3052 86.6641 37.3128 86.6641 37.3396C86.6641 37.3817 86.7253 37.397 86.775 37.4237C86.8056 37.3931 86.8056 37.3052 86.7673 37.3052Z" fill="#FFCD4F"/>
<path fill-rule="evenodd" clip-rule="evenodd" d="M87.3262 37.3052C87.2842 37.309 87.2459 37.3243 87.2383 37.3472V37.3664C87.2383 37.3664 87.2689 37.397 87.2995 37.397C87.3454 37.397 87.3798 37.3664 87.3798 37.3434C87.3798 37.3243 87.3492 37.3166 87.3262 37.3052Z" fill="#FFCD4F"/>
<path fill-rule="evenodd" clip-rule="evenodd" d="M89.3598 37.3503C89.3598 37.3503 89.3407 37.3389 89.3254 37.3389C89.3101 37.3389 89.291 37.3465 89.291 37.3465C89.291 37.3695 89.3063 37.3886 89.3331 37.3886C89.356 37.3848 89.356 37.3618 89.3598 37.3503Z" fill="#FFCD4F"/>
<path fill-rule="evenodd" clip-rule="evenodd" d="M88.1523 37.3359L88.5795 37.3776C88.5871 37.4267 88.5871 37.4797 88.4283 37.4759C88.2695 37.4759 88.3036 37.4381 88.1523 37.4381V37.3359Z" fill="#FFCD4F"/>
<path fill-rule="evenodd" clip-rule="evenodd" d="M88.8101 37.5508C88.9462 37.5886 89.1164 37.6226 89.2751 37.6226C89.4339 37.6226 89.2751 37.547 89.4339 37.5508C89.5889 37.5508 89.7666 37.6302 89.8422 37.6756C89.7666 37.7286 89.6192 37.7324 88.9424 37.7248C88.829 37.7929 88.8366 37.895 88.7572 37.9783C88.6778 37.9783 88.6551 37.9404 88.6173 37.9064C88.5757 37.9367 88.5228 37.9972 88.5266 37.9669L88.417 37.9064C88.3678 37.9064 88.3262 37.9745 88.2393 38.0123C88.1523 37.9291 88.2128 37.8686 88.2128 37.7778C88.2128 37.6907 87.9633 37.668 87.9709 37.5886C88.2204 37.5394 88.5001 37.5281 88.8101 37.5508Z" fill="#FFCD4F"/>
<path fill-rule="evenodd" clip-rule="evenodd" d="M89.9023 37.6002C89.9931 37.5926 90.0573 37.6607 90.2123 37.6645C90.5942 37.6645 91.0856 37.5056 91.5242 37.7326C90.4051 37.7023 90.235 37.8158 89.9023 37.6002Z" fill="#FFCD4F"/>
<path fill-rule="evenodd" clip-rule="evenodd" d="M85.0709 38.3867C84.9767 38.3942 84.8296 38.3526 84.709 38.2732V38.1445C84.8749 38.2202 84.9993 38.3299 85.0709 38.3867Z" fill="#FFCD4F"/>
<path fill-rule="evenodd" clip-rule="evenodd" d="M84.3393 38.3946C84.3507 38.3946 84.3506 38.3833 84.3506 38.3795C84.3506 38.3605 84.3355 38.334 84.3014 38.334C84.2521 38.334 84.1914 38.3416 84.1914 38.3643C84.1914 38.3871 84.2445 38.4022 84.29 38.4022C84.3127 38.4022 84.3203 38.3946 84.3393 38.3946Z" fill="#FFCD4F"/>
<path fill-rule="evenodd" clip-rule="evenodd" d="M89.2301 37.8529C89.1885 37.815 89.1734 37.7733 89.0978 37.7695C89.0752 37.7695 89.0676 37.7695 89.0449 37.7695V37.7809C89.0449 37.8037 89.0714 37.8112 89.094 37.8264C89.1318 37.8605 89.1545 37.8871 89.2225 37.8984C89.2339 37.8833 89.2301 37.8719 89.2301 37.8529Z" fill="#FFCD4F"/>
<path fill-rule="evenodd" clip-rule="evenodd" d="M89.5526 37.8309C89.5373 37.8156 89.5259 37.8003 89.4953 37.8003C89.4723 37.8003 89.457 37.8118 89.457 37.8118C89.457 37.8462 89.4685 37.8691 89.4953 37.8806C89.5259 37.8615 89.5526 37.8538 89.5526 37.8309Z" fill="#FFCD4F"/>
<path fill-rule="evenodd" clip-rule="evenodd" d="M9.29898 21.9453C9.32922 14.9313 15.0377 9.27161 22.0467 9.30188C29.0519 9.33214 34.7075 15.0448 34.6773 22.0588C34.647 29.0691 28.9385 34.7287 21.9333 34.6984C14.9205 34.6682 9.26496 28.9556 9.29898 21.9453Z" fill="white" stroke="#6C4099" stroke-width="0.111713" stroke-miterlimit="3.8637"/>
<path fill-rule="evenodd" clip-rule="evenodd" d="M10.045 21.9486C10.0753 15.3469 15.4435 10.0202 22.0404 10.0504C28.6336 10.0807 33.9565 15.4528 33.9262 22.0545C33.8998 28.6524 28.5315 33.9791 21.9384 33.9488C15.3415 33.9224 10.0186 28.5464 10.045 21.9486Z" stroke="#00904C" stroke-width="0.5" stroke-miterlimit="3.8637"/>
<path fill-rule="evenodd" clip-rule="evenodd" d="M14.0067 28.7052L12.9746 26.2272L15.8969 20.7681L16.8874 20.7718L18.1387 20.7756L19.1292 20.7794L22.0024 26.265L20.9476 28.7355L14.0067 28.7052Z" fill="#008F4C"/>
<path fill-rule="evenodd" clip-rule="evenodd" d="M19.9402 12.0522L16.2051 19.577L19.4903 19.5921L22.095 14.6021L24.6582 19.6148L27.9434 19.63L24.2726 12.0712L19.9402 12.0522Z" fill="#008F4C"/>
<path fill-rule="evenodd" clip-rule="evenodd" d="M23.1278 28.7476L22.0957 26.2658L25.0142 20.8066L26.0047 20.8104L27.256 20.818L28.2465 20.8218L31.1197 26.3074L30.0687 28.7778L23.1278 28.7476Z" fill="#008F4C"/>
<path fill-rule="evenodd" clip-rule="evenodd" d="M77.9347 18.0338V17.8333C77.9385 17.0313 77.7986 16.4487 77.5188 16.0893C77.2504 15.7261 76.7854 15.5445 76.12 15.5407C75.4396 15.5369 74.9065 15.7412 74.5247 16.1536C74.1542 16.566 73.9652 17.1864 73.9614 18.0149L77.9347 18.0338ZM73.8934 19.1574C73.8858 20.4399 74.0521 21.3555 74.3886 21.904C74.744 22.4526 75.3791 22.7326 76.3015 22.7363C77.05 22.7401 77.6889 22.5547 78.2144 22.184C78.755 21.7981 79.1255 21.2571 79.3297 20.5648L79.7984 20.5686C79.3637 22.3542 78.1124 23.2433 76.0444 23.2319C74.8725 23.2282 73.8896 22.8612 73.0995 22.1197C72.3093 21.3857 71.9162 20.474 71.9199 19.392C71.9237 18.2041 72.3358 17.2053 73.1448 16.3957C73.9538 15.5823 74.9557 15.1813 76.1465 15.1851C77.2353 15.1889 78.101 15.4877 78.7361 16.0817C79.3864 16.6567 79.7606 17.5004 79.8514 18.6089L73.9009 18.5824L73.8934 19.1574Z" fill="#333333"/>
<path fill-rule="evenodd" clip-rule="evenodd" d="M89.1413 23.3111C88.4193 23.3073 87.8446 23.1446 87.4212 22.8192C87.0129 22.4825 86.8088 22.0475 86.8126 21.514C86.8163 20.6212 87.27 19.9138 88.1811 19.3992C89.1035 18.8809 90.4078 18.6275 92.0939 18.6313L92.1014 16.751C92.1052 16.0019 91.5457 15.6274 90.4305 15.6236C89.9466 15.6198 89.542 15.6993 89.2169 15.8582C88.888 16.0057 88.7255 16.1495 88.7255 16.297C88.8654 16.4294 88.9977 16.5732 89.1262 16.7207C89.2547 16.8721 89.3152 17.0347 89.3114 17.2201C89.3114 17.4774 89.2283 17.6817 89.0544 17.8444C88.8994 17.9881 88.699 18.06 88.4608 18.06C87.8635 18.0562 87.5686 17.746 87.5724 17.118C87.5762 16.5845 87.8749 16.1381 88.4722 15.7787C89.0846 15.4231 89.8974 15.2453 90.9181 15.2491C92.0107 15.2529 92.7517 15.4193 93.1486 15.7409C93.5418 16.0625 93.7384 16.611 93.7384 17.3866L93.7195 21.7524C93.7195 22.0361 93.7384 22.2253 93.78 22.335C93.8329 22.4371 93.9539 22.4939 94.1391 22.4939C94.5209 22.4939 94.7704 22.2518 94.8876 21.7562L95.2279 21.8016C95.1825 22.2669 94.9973 22.6377 94.6721 22.9176C94.3584 23.1862 93.9614 23.3148 93.4813 23.3148C92.6609 23.3111 92.2073 22.8836 92.1279 22.0286C91.8708 22.4144 91.4663 22.7247 90.9144 22.963C90.3662 23.1938 89.7802 23.3148 89.1413 23.3111ZM88.4306 21.026C88.4268 21.4649 88.5667 21.8281 88.8502 22.108C89.1338 22.388 89.5231 22.5279 90.0146 22.5317C90.6119 22.5355 91.0996 22.3955 91.4852 22.1194C91.8822 21.8394 92.0825 21.4535 92.0863 20.9579L92.0939 19.0777C90.903 19.0739 89.9957 19.2328 89.3719 19.5657C88.7482 19.8948 88.4344 20.3829 88.4306 21.026Z" fill="#333333"/>
<path fill-rule="evenodd" clip-rule="evenodd" d="M50.4706 22.3955L51.9979 22.3993L52.0546 10.2477L50.5235 10.2401L50.5273 9.74072L54.7312 9.75964L57.6459 19.5051L60.8291 9.7899L64.9309 9.80504L64.9271 10.3044L63.2939 10.2969L63.241 22.4522L64.8742 22.4598V22.9592L59.6647 22.9365L59.6685 22.4371L61.2411 22.4409L61.2941 10.4709H61.2109L57.1166 22.9251H56.5874L52.8825 10.433H52.7124L52.6595 22.4031L54.2284 22.4106V22.9138L50.4668 22.8949L50.4706 22.3955Z" fill="#333333"/>
<path fill-rule="evenodd" clip-rule="evenodd" d="M69.7608 17.9995V17.799C69.7646 16.997 69.6247 16.4144 69.3449 16.055C69.0765 15.6918 68.6115 15.5102 67.9462 15.5064C67.2695 15.5026 66.7326 15.7069 66.3508 16.1193C65.9803 16.5316 65.7913 17.1521 65.7875 17.9806L69.7608 17.9995ZM65.7195 19.1194C65.7119 20.4019 65.882 21.3174 66.2147 21.8659C66.5663 22.4145 67.2052 22.6945 68.1239 22.6982C68.8762 22.702 69.5113 22.5167 70.0368 22.1459C70.5774 21.76 70.9479 21.219 71.152 20.5267L71.6208 20.5305C71.186 22.3161 69.9385 23.2052 67.8668 23.1938C66.6911 23.1901 65.7081 22.8231 64.918 22.0816C64.1279 21.3477 63.7347 20.4359 63.7423 19.3539C63.7461 18.166 64.1544 17.1672 64.9672 16.3576C65.78 15.5442 66.778 15.1432 67.9689 15.147C69.0614 15.1508 69.9234 15.4497 70.5585 16.0436C71.2049 16.6187 71.5792 17.4623 71.6737 18.5708L65.7233 18.5443L65.7195 19.1194Z" fill="#333333"/>
<path fill-rule="evenodd" clip-rule="evenodd" d="M79.7069 22.6677L84.6442 15.8201L82.6065 15.8125C81.5858 15.8087 80.9734 16.52 80.7692 17.9462L80.2589 17.9424L80.3987 15.3774L86.5609 15.4039L86.5571 15.8655L81.6425 22.5731L83.8919 22.5844C85.0109 22.5882 85.7292 21.8051 86.0467 20.2313L86.5155 20.2351L86.3756 23.0573L79.7031 23.0271L79.7069 22.6677Z" fill="#333333"/>
<path fill-rule="evenodd" clip-rule="evenodd" d="M95.3824 22.6385L96.5279 22.6423L96.5582 15.8742L95.4127 15.8704V15.4505H95.7945C96.6602 15.4542 97.4541 15.4013 98.1724 15.2802L98.1611 17.5047C98.7924 16.0104 99.8472 15.2689 101.318 15.2764C102.04 15.2802 102.614 15.4694 103.038 15.8439C103.461 16.2222 103.673 16.7519 103.669 17.4291L103.647 22.6763L104.75 22.6801L104.747 23.1417L100.815 23.1228L100.819 22.6612L102.028 22.665L102.051 17.3572C102.055 16.3698 101.62 15.8742 100.739 15.8704C100.059 15.8666 99.4616 16.1844 98.9512 16.8237C98.4522 17.448 98.1989 18.2311 98.1951 19.1807L98.18 22.6461L99.3066 22.6499L99.3028 23.1114L95.3711 23.0925L95.3824 22.6385Z" fill="#333333"/>
<path fill-rule="evenodd" clip-rule="evenodd" d="M110.678 22.6642L112.209 22.6717L112.262 10.5201L110.731 10.5126L110.734 10.0132L116.091 10.0359C119.403 10.051 121.059 11.0725 121.051 13.1003C121.048 13.9137 120.745 14.5908 120.148 15.1356C119.566 15.6691 118.723 16.0171 117.615 16.1874V16.2668C118.832 16.456 119.777 16.8608 120.458 17.4774C121.15 18.0827 121.494 18.794 121.49 19.6074C121.486 20.7423 121.006 21.6276 120.053 22.2669C119.104 22.8874 117.732 23.1938 115.948 23.1863L110.678 23.1636V22.6642ZM115.895 16.0171C117.071 16.0209 117.864 15.8204 118.276 15.408C118.689 14.9956 118.896 14.2428 118.904 13.1457C118.908 12.1204 118.685 11.4281 118.235 11.08C117.796 10.7169 116.995 10.5353 115.834 10.5277L114.349 10.5201L114.326 16.0058L115.895 16.0171ZM114.292 22.6793L116.141 22.6869C117.316 22.6907 118.114 22.4901 118.526 22.0778C118.953 21.6541 119.169 20.8596 119.172 19.6982C119.176 18.5481 118.942 17.7347 118.458 17.2542C117.982 16.77 117.154 16.5278 115.978 16.5203L114.322 16.5127L114.292 22.6793Z" fill="#333333"/>
<path fill-rule="evenodd" clip-rule="evenodd" d="M123.762 23.4658C123.04 23.4621 122.469 23.2994 122.046 22.974C121.638 22.6373 121.43 22.2023 121.434 21.6688C121.437 20.776 121.895 20.0685 122.802 19.554C123.728 19.0357 125.029 18.7823 126.715 18.786L126.723 16.9058C126.726 16.1567 126.171 15.7822 125.052 15.7784C124.568 15.7746 124.163 15.8541 123.838 16.013C123.513 16.1605 123.347 16.3043 123.347 16.4518C123.49 16.5842 123.623 16.728 123.751 16.8755C123.88 17.0269 123.94 17.1895 123.94 17.3749C123.94 17.6322 123.853 17.8365 123.683 17.9991C123.528 18.1429 123.328 18.2148 123.089 18.2148C122.492 18.211 122.197 17.9008 122.197 17.2728C122.201 16.7393 122.5 16.2929 123.097 15.9335C123.706 15.5779 124.522 15.4001 125.543 15.4039C126.632 15.4077 127.377 15.5741 127.77 15.8957C128.167 16.2173 128.359 16.7658 128.356 17.5414L128.337 21.9072C128.337 22.1909 128.359 22.3801 128.401 22.4898C128.454 22.5919 128.575 22.6487 128.76 22.6487C129.142 22.6487 129.392 22.4066 129.505 21.911L129.841 21.9564C129.8 22.4217 129.615 22.7924 129.286 23.0724C128.972 23.341 128.575 23.4696 128.095 23.4696C127.271 23.4658 126.821 23.0383 126.741 22.1833C126.484 22.5692 126.08 22.8795 125.524 23.1178C124.987 23.3486 124.398 23.4696 123.762 23.4658ZM123.052 21.1808C123.048 21.6197 123.192 21.9828 123.471 22.2628C123.755 22.5427 124.144 22.6827 124.639 22.6865C125.237 22.6903 125.724 22.5503 126.106 22.2741C126.503 21.9942 126.704 21.6083 126.704 21.1127L126.711 19.2325C125.524 19.2287 124.617 19.3876 123.989 19.7205C123.365 20.0496 123.052 20.5377 123.052 21.1808Z" fill="#333333"/>
<path fill-rule="evenodd" clip-rule="evenodd" d="M129.932 22.7889L131.077 22.7927L131.107 16.0246L129.962 16.0208V15.6008H130.344C131.209 15.6046 132.003 15.5517 132.725 15.4306L132.714 17.6551C133.345 16.1608 134.396 15.4192 135.871 15.4268C136.593 15.4306 137.167 15.6198 137.587 15.9943C138.01 16.3726 138.222 16.9023 138.218 17.5795L138.196 22.8267L139.303 22.8305L139.3 23.2921L135.368 23.2732L135.372 22.8116L136.585 22.8154L136.608 17.5076C136.612 16.5202 136.177 16.0246 135.296 16.0208C134.619 16.017 134.018 16.3348 133.508 16.9741C133.009 17.5984 132.756 18.3815 132.752 19.3311L132.737 22.7965L133.863 22.8003L133.859 23.2618L129.928 23.2429L129.932 22.7889Z" fill="#333333"/>
<path fill-rule="evenodd" clip-rule="evenodd" d="M140.982 10.5433L139.879 10.5395V10.1423L142.638 9.95312L142.582 22.8462L143.772 22.85L143.769 23.3116L139.75 23.2927L139.754 22.8311L140.922 22.8349L140.982 10.5433ZM146.29 16.1159L144.888 16.1084L144.891 15.6695L148.377 15.6847L148.373 16.1235L147.054 16.1159L144.154 18.3859L148.15 22.8689L149.001 22.8727L148.997 23.3343L144.978 23.3154L144.982 22.8538L146.067 22.8576L142.665 18.9193L146.29 16.1159Z" fill="#333333"/>
<path fill-rule="evenodd" clip-rule="evenodd" d="M64.4085 31.9969C64.3178 32.3866 64.1326 32.6968 63.849 32.9238C63.5731 33.1432 63.2328 33.2529 62.8359 33.2491C62.2877 33.2454 61.8265 33.0524 61.4484 32.6703C61.0779 32.2806 60.8965 31.7964 60.8965 31.2213C60.9003 30.6425 61.1006 30.1696 61.5127 29.814C61.9172 29.447 62.3406 29.2692 62.7829 29.273C63.2479 29.2768 63.6373 29.4433 63.9549 29.7913C64.28 30.1356 64.4388 30.5971 64.435 31.1646L61.7395 31.1533L61.7168 31.5732C61.7131 32.1028 61.8038 32.4925 61.9853 32.7384C62.1743 32.9805 62.4805 33.1016 62.9077 33.1054C63.2253 33.1054 63.505 33.0108 63.7356 32.8179C63.9813 32.6211 64.1477 32.345 64.2384 31.9969H64.4085ZM63.626 31.0322L63.6373 30.6047C63.6411 30.1658 63.5806 29.8556 63.4596 29.674C63.3387 29.4886 63.1081 29.3979 62.7716 29.3941C62.42 29.3941 62.1629 29.5227 62.0004 29.7875C61.834 30.0523 61.7546 30.4647 61.7509 31.0246L63.626 31.0322Z" fill="#333333"/>
<path fill-rule="evenodd" clip-rule="evenodd" d="M51.7743 32.9464L52.7572 32.9502L52.7799 27.5175L52.6287 27.51C52.0427 27.5062 51.5891 27.6878 51.2677 28.051C50.9577 28.4179 50.799 28.9741 50.7952 29.7194H50.6855L50.6969 27.3511L55.7816 27.3738L55.7703 29.7421H55.6493C55.5548 28.9173 55.3696 28.3347 55.0898 28.0131C54.8063 27.684 54.3299 27.5251 53.6532 27.5213L53.6079 32.954L54.587 32.9578V33.1129L51.7705 33.1015L51.7743 32.9464Z" fill="#333333"/>
<path fill-rule="evenodd" clip-rule="evenodd" d="M58.9797 29.4517C58.6433 29.4517 58.3484 29.6144 58.0989 29.9435C57.8532 30.2689 57.7322 30.7002 57.7284 31.226L57.7209 33.0041L58.4165 33.0079V33.1366L56.2578 33.1252V32.9966L56.9648 33.0004L56.9874 27.5261L56.2805 27.5223V27.3823L57.7398 27.3899L57.7284 30.3635C57.838 30.0192 58.0195 29.7468 58.2804 29.5539C58.545 29.3534 58.8399 29.2588 59.1726 29.2588C59.5317 29.2588 59.819 29.3685 60.0307 29.5917C60.2462 29.8111 60.3521 30.1214 60.3521 30.5186L60.3407 33.0155L61.0363 33.0193V33.1479L58.8815 33.1366V33.0079L59.5884 33.0117L59.5997 30.2386C59.6073 29.7166 59.3994 29.4517 58.9797 29.4517Z" fill="#333333"/>
<path fill-rule="evenodd" clip-rule="evenodd" d="M71.168 33.0342V33.1893L68.3516 33.1779V33.0228L69.3345 33.0266L69.3572 27.594L68.3742 27.5902V27.4351L71.3608 27.4502C72.0224 27.454 72.5554 27.6091 72.9599 27.9042C73.372 28.1955 73.5724 28.57 73.5724 29.0278C73.5686 29.9509 72.8049 30.4086 71.2776 30.4011L70.1964 30.3973L70.1851 33.038L71.168 33.0342ZM71.1529 30.2422C71.7804 30.246 72.1812 30.1665 72.3589 30.0038C72.5441 29.8374 72.6348 29.4628 72.6386 28.8802C72.6424 28.3998 72.5592 28.0706 72.3891 27.8853C72.2303 27.6961 71.8712 27.6015 71.3079 27.5977L70.2153 27.594L70.204 30.2346L71.1529 30.2422Z" fill="#333333"/>
<path fill-rule="evenodd" clip-rule="evenodd" d="M80.8382 32.0692C80.7475 32.4588 80.5585 32.7691 80.2787 32.9961C79.999 33.2155 79.6625 33.3252 79.2656 33.3214C78.7174 33.3176 78.2562 33.1247 77.8781 32.7426C77.5076 32.3529 77.3262 31.8687 77.3262 31.2936C77.33 30.7148 77.5379 30.2419 77.9424 29.8863C78.3507 29.5193 78.7741 29.3415 79.2126 29.3453C79.6776 29.3491 80.0708 29.5155 80.3846 29.8636C80.7059 30.2078 80.8647 30.6694 80.8647 31.2369L78.173 31.2255L78.1503 31.6455C78.1465 32.1751 78.2373 32.5648 78.4187 32.8107C78.6078 33.0528 78.914 33.1739 79.3412 33.1776C79.6587 33.1776 79.9385 33.0831 80.1729 32.8901C80.4148 32.6934 80.5812 32.4172 80.6719 32.0692H80.8382ZM80.0519 31.1045L80.0632 30.677C80.067 30.2381 80.0065 29.9279 79.8856 29.7463C79.7646 29.5609 79.5377 29.4701 79.1975 29.4663C78.8459 29.4663 78.5889 29.595 78.4225 29.8598C78.26 30.1246 78.1768 30.537 78.1768 31.0969L80.0519 31.1045Z" fill="#333333"/>
<path fill-rule="evenodd" clip-rule="evenodd" d="M90.309 33.1438V33.2725L88.1504 33.2611V33.1325L88.8498 33.1363L88.8649 29.599L88.1655 29.5952V29.4666L89.6134 29.4741L89.5983 33.1401L90.309 33.1438ZM89.2883 27.6733C89.4282 27.6733 89.5454 27.7112 89.6323 27.7868C89.7268 27.8549 89.7722 27.9419 89.7722 28.0517C89.7722 28.1576 89.7231 28.2484 89.6286 28.3278C89.5303 28.4035 89.4168 28.4413 89.2845 28.4413C89.156 28.4413 89.0426 28.3997 88.9518 28.3278C88.8573 28.2484 88.812 28.1576 88.812 28.0517C88.812 27.9419 88.8573 27.8549 88.9443 27.7868C89.0388 27.7074 89.1522 27.6733 89.2883 27.6733Z" fill="#333333"/>
<path fill-rule="evenodd" clip-rule="evenodd" d="M93.6469 32.1263C93.5561 32.516 93.3671 32.8262 93.0874 33.0532C92.8076 33.2726 92.4712 33.3823 92.0704 33.3785C91.5223 33.3748 91.061 33.1818 90.683 32.7997C90.3163 32.41 90.131 31.9258 90.1348 31.3507C90.1386 30.7719 90.339 30.299 90.7473 29.9434C91.1518 29.5764 91.5752 29.3986 92.0137 29.4024C92.4787 29.4062 92.8719 29.5726 93.1857 29.9207C93.507 30.265 93.6696 30.7265 93.6658 31.294L90.9703 31.2826L90.9476 31.7026C90.9438 32.2322 91.0346 32.6219 91.216 32.8678C91.4051 33.1099 91.7113 33.231 92.1385 33.2348C92.4522 33.2348 92.732 33.1402 92.9702 32.9473C93.2121 32.7505 93.3785 32.4744 93.4692 32.1263H93.6469ZM92.8605 31.1616L92.8719 30.7341C92.8757 30.2952 92.8152 29.985 92.698 29.8034C92.577 29.618 92.3464 29.5272 92.0099 29.5235C91.6583 29.5235 91.4013 29.6521 91.2387 29.9169C91.0762 30.1817 90.993 30.5941 90.9892 31.154L92.8605 31.1616Z" fill="#333333"/>
<path fill-rule="evenodd" clip-rule="evenodd" d="M76.6623 29.3306C76.8514 29.3306 77.0101 29.3835 77.1387 29.4932C77.2748 29.5992 77.3428 29.7354 77.339 29.9094C77.339 30.0191 77.2975 30.1175 77.2181 30.1894C77.1349 30.265 77.0253 30.3028 76.8854 30.3028C76.7644 30.3028 76.6623 30.2726 76.5792 30.2121C76.5036 30.1477 76.4695 30.0645 76.4695 29.9699C76.4695 29.8678 76.5035 29.7883 76.5716 29.7316C76.6472 29.6673 76.7417 29.637 76.8551 29.637C76.9648 29.637 77.0668 29.6748 77.1576 29.7429C77.0593 29.5576 76.874 29.4668 76.6132 29.4668C76.3107 29.4668 76.0461 29.637 75.8231 29.9699C75.6 30.3104 75.4828 30.753 75.4828 31.3016L75.4753 33.0873L76.186 33.0911V33.2197L74.0273 33.2083V33.0797L74.7229 33.0835L74.7381 29.5462L74.0425 29.5424V29.4138L75.4488 29.4214L75.4866 30.3482C75.7248 29.6635 76.1179 29.3306 76.6623 29.3306Z" fill="#333333"/>
<path fill-rule="evenodd" clip-rule="evenodd" d="M85.5352 33.2537L83.3766 33.2424V33.1138L84.076 33.1175L84.0873 30.3445C84.0911 29.8224 83.8983 29.5614 83.5127 29.5576C83.2027 29.5576 82.9343 29.7202 82.6999 30.0494C82.4768 30.3672 82.3634 30.7985 82.3597 31.3319L82.3521 33.11L83.059 33.1138V33.2424L80.9004 33.231V33.1024L81.5998 33.1062L81.6149 29.5689L80.9155 29.5651V29.4365L82.3256 29.4441L82.3634 30.4277C82.4769 30.0834 82.6507 29.8186 82.8814 29.637C83.1195 29.4516 83.3879 29.3608 83.6828 29.3608C83.9664 29.3608 84.2159 29.4592 84.4314 29.6673C84.6544 29.8716 84.7829 30.1402 84.8245 30.4693C84.9417 30.1137 85.1118 29.8413 85.3424 29.6559C85.5806 29.463 85.8528 29.3684 86.1552 29.3722C86.522 29.3722 86.8017 29.4819 87.0059 29.7051C87.2138 29.9208 87.3196 30.231 87.3158 30.632L87.3045 33.1289L88.0001 33.1327V33.2613L85.8415 33.25V33.1213L86.5484 33.1251L86.5598 30.352C86.5635 29.83 86.3707 29.5689 85.9776 29.5651C85.6676 29.5651 85.3992 29.7278 85.1761 30.0456C84.9531 30.3672 84.8396 30.8022 84.8359 31.3357L84.8283 33.1138L85.5277 33.1175L85.5352 33.2537Z" fill="#333333"/>
<path fill-rule="evenodd" clip-rule="evenodd" d="M96.4043 29.4175C96.5933 29.4175 96.7521 29.4704 96.8768 29.5764C97.0129 29.6823 97.081 29.8185 97.0772 29.9925C97.0772 30.1022 97.0356 30.2006 96.9524 30.2725C96.873 30.3481 96.7634 30.386 96.6198 30.386C96.495 30.386 96.3967 30.3557 96.3135 30.2952C96.2417 30.2309 96.2039 30.1476 96.2039 30.0531C96.2039 29.9509 96.2379 29.8715 96.306 29.8147C96.3816 29.7504 96.4761 29.7201 96.5933 29.7201C96.6991 29.7201 96.7974 29.758 96.8919 29.8261C96.7937 29.6407 96.6084 29.5499 96.3476 29.5499C96.0451 29.5499 95.7805 29.7201 95.5574 30.0531C95.3344 30.3935 95.221 30.8362 95.2172 31.3847L95.2096 33.1704L95.9166 33.1742V33.3028L93.7617 33.2915V33.1628L94.4573 33.1666L94.4724 29.6293L93.7768 29.6256V29.4969L95.1832 29.5045L95.221 30.4314C95.4629 29.7504 95.8561 29.4175 96.4043 29.4175Z" fill="#333333"/>
<path fill-rule="evenodd" clip-rule="evenodd" d="M110.156 31.4564C109.986 31.5056 109.872 31.6077 109.808 31.7666C109.755 31.9142 109.729 32.1563 109.725 32.4816C109.725 32.7843 109.755 32.9962 109.823 33.121C109.887 33.2459 110.023 33.3064 110.228 33.3064C110.496 33.3064 110.742 33.1853 110.957 32.9394C111.18 32.6897 111.294 32.3719 111.297 31.9785L111.301 31.1462C111.173 31.2143 111.006 31.2672 110.802 31.3126C110.602 31.3618 110.386 31.4072 110.156 31.4564ZM110.114 33.4615C109.751 33.4615 109.464 33.3631 109.267 33.174C109.067 32.9886 108.965 32.72 108.965 32.3757C108.969 31.8158 109.248 31.4829 109.812 31.377C110.379 31.271 110.727 31.1954 110.855 31.1727C110.984 31.1424 111.131 31.0856 111.305 30.9949L111.309 30.2647C111.309 29.841 111.04 29.6253 110.5 29.6216C110.065 29.6178 109.763 29.7691 109.585 30.0718C109.653 30.0415 109.71 30.0339 109.759 30.0339C109.865 30.0339 109.952 30.0642 110.02 30.1323C110.095 30.1928 110.129 30.2647 110.129 30.3555C110.129 30.4614 110.088 30.5484 110.008 30.6127C109.929 30.6771 109.815 30.7073 109.676 30.7073C109.551 30.7073 109.449 30.6657 109.362 30.5938C109.282 30.5106 109.241 30.4122 109.241 30.2874C109.241 30.068 109.377 29.875 109.649 29.7161C109.925 29.5572 110.277 29.4778 110.704 29.4816C111.116 29.4816 111.441 29.5837 111.683 29.7842C111.933 29.981 112.053 30.2571 112.05 30.6165L112.038 32.9243C112.038 33.1664 112.129 33.2875 112.314 33.2875C112.439 33.2875 112.545 33.2269 112.628 33.1059C112.719 32.9848 112.76 32.807 112.764 32.5724H112.934C112.931 33.1702 112.681 33.4691 112.182 33.4653C111.933 33.4653 111.728 33.3896 111.573 33.2459C111.422 33.0945 111.35 32.894 111.354 32.6443V32.6027C111.199 32.8864 111.018 33.1021 110.813 33.2496C110.617 33.3934 110.386 33.4615 110.114 33.4615Z" fill="#333333"/>
<path fill-rule="evenodd" clip-rule="evenodd" d="M122.454 33.2879V33.4165L120.299 33.4052V33.2765L120.994 33.2803L121.01 29.743L120.314 29.7392V29.6106L121.762 29.6182L121.747 33.2841L122.454 33.2879ZM121.437 27.8174C121.58 27.8174 121.694 27.8552 121.781 27.9309C121.875 27.999 121.921 28.086 121.921 28.1957C121.921 28.3016 121.872 28.3924 121.777 28.4719C121.682 28.5475 121.569 28.5854 121.433 28.5854C121.304 28.5854 121.195 28.5438 121.1 28.4719C121.006 28.3924 120.96 28.3016 120.96 28.1957C120.96 28.086 121.006 27.999 121.093 27.9309C121.187 27.8514 121.301 27.8174 121.437 27.8174Z" fill="#333333"/>
<path fill-rule="evenodd" clip-rule="evenodd" d="M103.592 33.1776V33.3327L100.775 33.3214V33.1663L101.758 33.17L101.785 27.7374L100.802 27.7298V27.5747L103.618 27.5898V27.745L102.635 27.7412L102.609 33.1738L103.592 33.1776Z" fill="#333333"/>
<path fill-rule="evenodd" clip-rule="evenodd" d="M105.585 33.3023C105.85 33.3023 106.065 33.2342 106.232 33.0943C106.402 32.9543 106.489 32.7803 106.489 32.5722C106.489 32.3338 106.391 32.1522 106.198 32.0198C106.005 31.8874 105.665 31.7172 105.177 31.5129C104.693 31.3124 104.357 31.1421 104.179 31.0097C104.005 30.866 103.918 30.6655 103.918 30.4044C103.918 30.1245 104.032 29.8975 104.255 29.7197C104.478 29.5418 104.757 29.4548 105.094 29.4586C105.457 29.4586 105.812 29.6062 106.156 29.9088L106.697 29.5532L106.708 30.9643H106.598C106.477 30.5406 106.281 30.2039 106.005 29.9618C105.729 29.7159 105.427 29.5948 105.094 29.5948C104.893 29.5948 104.727 29.6364 104.595 29.7272C104.47 29.818 104.402 29.9353 104.402 30.0828C104.402 30.2871 104.478 30.446 104.636 30.552C104.795 30.6579 105.113 30.8016 105.578 30.9946C106.047 31.18 106.394 31.3691 106.606 31.5545C106.829 31.7399 106.939 31.982 106.935 32.2847C106.935 32.6176 106.806 32.8975 106.549 33.117C106.292 33.3364 105.971 33.4461 105.597 33.4423C105.132 33.4385 104.727 33.2645 104.383 32.9127L103.914 33.3553H103.805L103.812 31.7891H103.922C104.069 32.2771 104.289 32.6478 104.583 32.9165C104.882 33.1699 105.215 33.3023 105.585 33.3023Z" fill="#333333"/>
<path fill-rule="evenodd" clip-rule="evenodd" d="M106.823 27.7415V27.6016L108.283 27.6091L108.256 33.2234L108.956 33.2272V33.3558L106.797 33.3482V33.2196L107.508 33.2234L107.53 27.7453L106.823 27.7415Z" fill="#333333"/>
<path fill-rule="evenodd" clip-rule="evenodd" d="M117.6 33.3968L115.441 33.3855V33.2568L116.141 33.2606L116.152 30.4875C116.156 29.9655 115.963 29.7044 115.581 29.7006C115.271 29.7006 114.999 29.8633 114.768 30.1924C114.545 30.5102 114.428 30.9415 114.424 31.475L114.417 33.2531L115.128 33.2568V33.3855L112.973 33.3741V33.2455L113.672 33.2493L113.687 29.712L112.988 29.7082V29.5796L114.394 29.5871L114.428 30.5708C114.545 30.2265 114.719 29.9617 114.95 29.7801C115.188 29.5947 115.456 29.5039 115.751 29.5039C116.035 29.5039 116.284 29.6023 116.5 29.8103C116.723 30.0146 116.851 30.2832 116.893 30.6124C117.006 30.2568 117.18 29.9844 117.411 29.799C117.649 29.6061 117.918 29.5115 118.224 29.5153C118.587 29.5153 118.87 29.625 119.071 29.8482C119.278 30.0638 119.381 30.374 119.381 30.7751L119.369 33.272L120.069 33.2757V33.4044L117.91 33.393V33.2644L118.617 33.2682L118.628 30.4951C118.632 29.973 118.435 29.712 118.042 29.7082C117.732 29.7082 117.464 29.8709 117.241 30.1887C117.018 30.5102 116.904 30.9453 116.901 31.4787L116.893 33.2568L117.592 33.2606L117.6 33.3968Z" fill="#333333"/>
<path fill-rule="evenodd" clip-rule="evenodd" d="M124.092 33.5223C123.593 33.5185 123.151 33.3255 122.777 32.9434C122.406 32.5613 122.225 32.0847 122.225 31.5247C122.228 30.8816 122.444 30.3898 122.871 30.0493C123.306 29.705 123.752 29.5386 124.209 29.5386C124.546 29.5386 124.829 29.6332 125.052 29.8223C125.279 30.0077 125.393 30.2347 125.393 30.5033C125.393 30.8362 125.215 31.0027 124.863 31.0027C124.72 31.0027 124.606 30.9648 124.519 30.893C124.432 30.8249 124.387 30.7303 124.387 30.6206C124.387 30.5109 124.436 30.4238 124.523 30.352C124.61 30.2763 124.723 30.2385 124.856 30.2385C124.984 30.2385 125.105 30.2876 125.223 30.386C125.166 30.1552 125.052 29.9774 124.871 29.8526C124.697 29.7277 124.47 29.6634 124.202 29.6634C123.737 29.6596 123.431 29.811 123.287 30.1174C123.147 30.4201 123.071 30.9421 123.068 31.6836C123.064 32.2814 123.136 32.7127 123.287 32.9813C123.434 33.2385 123.714 33.3672 124.126 33.3709C124.527 33.3709 124.86 33.2499 125.132 33.004C125.404 32.7581 125.54 32.4176 125.54 31.9787H125.703C125.699 32.463 125.548 32.8375 125.241 33.1099C124.931 33.3899 124.55 33.5261 124.092 33.5223Z" fill="#333333"/>
<path fill-rule="evenodd" clip-rule="evenodd" d="M129.576 33.2948L130.559 33.2986L130.582 27.8659L129.599 27.8621V27.707L132.831 27.7222C133.376 27.7259 133.818 27.8508 134.154 28.0929C134.498 28.3388 134.668 28.649 134.668 29.0311C134.668 29.3981 134.502 29.697 134.177 29.9353C133.859 30.1699 133.402 30.3174 132.808 30.3742C134.226 30.5028 134.933 31.0022 134.929 31.8685C134.926 32.3755 134.721 32.7689 134.317 33.0527C133.916 33.3326 133.338 33.4688 132.574 33.465L129.576 33.4499V33.2948ZM131.421 30.2834L132.404 30.2872C132.884 30.291 133.232 30.1964 133.459 30.0186C133.689 29.8294 133.803 29.5381 133.807 29.1446C133.81 28.6831 133.716 28.3615 133.519 28.1648C133.33 27.9681 132.986 27.8697 132.487 27.8697L131.432 27.8659L131.421 30.2834ZM132.412 33.3062C132.971 33.3099 133.383 33.1889 133.64 32.943C133.901 32.6895 134.03 32.2923 134.03 31.7399C134.033 31.2973 133.901 30.9757 133.64 30.7601C133.376 30.552 132.96 30.4423 132.385 30.4385L131.425 30.4347L131.413 33.3024L132.412 33.3062Z" fill="#333333"/>
<path fill-rule="evenodd" clip-rule="evenodd" d="M136.324 31.5735C136.154 31.6226 136.04 31.7248 135.98 31.8837C135.927 32.0312 135.896 32.2734 135.896 32.5987C135.896 32.9014 135.927 33.1132 135.995 33.2381C136.063 33.3629 136.199 33.4234 136.399 33.4234C136.668 33.4234 136.913 33.3024 137.129 33.0565C137.356 32.8068 137.469 32.489 137.469 32.0955L137.473 31.2632C137.344 31.3313 137.178 31.3843 136.974 31.4297C136.77 31.4789 136.554 31.5243 136.324 31.5735ZM136.282 33.5748C135.919 33.5748 135.636 33.4764 135.431 33.2872C135.235 33.1019 135.133 32.8333 135.133 32.489C135.137 31.9291 135.42 31.5962 135.98 31.4902C136.547 31.3843 136.895 31.3086 137.019 31.2859C137.148 31.2557 137.299 31.1989 137.469 31.1081L137.473 30.378C137.477 29.9543 137.205 29.7386 136.664 29.7348C136.233 29.731 135.927 29.8824 135.753 30.185C135.821 30.1548 135.878 30.1472 135.923 30.1472C136.033 30.1472 136.116 30.1775 136.188 30.2456C136.259 30.3061 136.297 30.378 136.297 30.4688C136.297 30.5747 136.256 30.6617 136.176 30.726C136.097 30.7903 135.983 30.8206 135.84 30.8206C135.719 30.8206 135.613 30.779 135.526 30.7071C135.443 30.6239 135.405 30.5255 135.405 30.4007C135.405 30.1812 135.541 29.9883 135.813 29.8294C136.089 29.6705 136.441 29.5911 136.868 29.5949C137.28 29.5949 137.605 29.697 137.847 29.8975C138.097 30.0942 138.218 30.3704 138.218 30.7298L138.206 33.0376C138.206 33.2797 138.297 33.4007 138.479 33.4007C138.607 33.4007 138.709 33.3402 138.792 33.2192C138.879 33.0981 138.925 32.9203 138.925 32.6857H139.095C139.091 33.2835 138.841 33.5823 138.342 33.5786C138.093 33.5786 137.889 33.5029 137.734 33.3591C137.586 33.2078 137.511 33.0073 137.515 32.7576V32.716C137.36 32.9997 137.178 33.2154 136.978 33.3629C136.789 33.5105 136.554 33.5786 136.282 33.5748Z" fill="#333333"/>
<path fill-rule="evenodd" clip-rule="evenodd" d="M141.879 29.8179C141.542 29.8179 141.243 29.9806 140.994 30.3098C140.748 30.6351 140.627 31.0664 140.623 31.5923L140.616 33.3704L141.323 33.3741V33.5028L139.168 33.4914V33.3628L139.867 33.3666L139.882 29.8293L139.183 29.8255V29.6969L140.593 29.7044L140.627 30.7297C140.737 30.3854 140.918 30.113 141.179 29.9201C141.444 29.7196 141.742 29.625 142.083 29.625C142.442 29.625 142.725 29.7347 142.941 29.9579C143.156 30.1773 143.262 30.4876 143.262 30.8848L143.251 33.3817L143.946 33.3855V33.5141L141.792 33.5028V33.3741L142.487 33.3779L142.499 30.6048C142.502 30.0828 142.294 29.8217 141.879 29.8179Z" fill="#333333"/>
<path fill-rule="evenodd" clip-rule="evenodd" d="M144.132 27.908V27.7681L145.591 27.7756L145.573 31.7745L146.903 30.5147C147.005 30.4163 147.054 30.3217 147.058 30.2234C147.058 29.9812 146.854 29.8602 146.453 29.8564L146.423 29.7278L148.359 29.7353V29.864C148.026 29.864 147.652 30.0569 147.232 30.4466L146.631 31.0065L148.17 33.3975L148.676 33.4012V33.5299L146.756 33.5223V33.3937L147.33 33.3975L146.094 31.4832L145.576 31.9598L145.569 33.3861L146.268 33.3899V33.5185L144.113 33.5072V33.3785L144.82 33.3823L144.843 27.908H144.132Z" fill="#333333"/>
</svg>
